<?xml version="1.0" standalone="no"?>
<!DOCTYPE svg PUBLIC "-//W3C//DTD SVG 20010904//EN"
 "http://www.w3.org/TR/2001/REC-SVG-20010904/DTD/svg10.dtd">
<svg version="1.0" xmlns="http://www.w3.org/2000/svg"
 width="2083.000000pt" height="2083.000000pt" viewBox="0 0 2083.000000 2083.000000"
 preserveAspectRatio="xMidYMid meet">

<g transform="translate(0.000000,2083.000000) scale(0.100000,-0.100000)"
fill="#000000" stroke="none">
<path d="M10030 17380 c-69 -3 -131 -9 -137 -13 -7 -4 -49 -12 -95 -18 -183
-22 -216 -27 -291 -43 -44 -9 -83 -19 -88 -22 -5 -3 -30 -9 -57 -13 -46 -9
-217 -55 -257 -70 -42 -17 -91 -33 -120 -41 -42 -12 -95 -30 -130 -46 -16 -7
-54 -21 -82 -30 -29 -9 -53 -20 -53 -25 0 -5 -8 -9 -19 -9 -23 0 -108 -37
-116 -50 -3 -6 -15 -10 -26 -10 -11 0 -55 -18 -97 -39 -42 -21 -84 -42 -92
-45 -8 -3 -37 -19 -65 -36 -27 -16 -72 -41 -100 -55 -27 -14 -63 -34 -80 -45
-16 -10 -45 -27 -63 -36 -19 -9 -36 -23 -39 -31 -3 -7 -11 -13 -18 -13 -12 0
-41 -18 -172 -104 -18 -11 -33 -24 -33 -28 0 -5 -5 -8 -10 -8 -8 0 -186 -127
-254 -181 -43 -34 -114 -92 -126 -103 -8 -7 -49 -42 -90 -76 -132 -112 -394
-367 -496 -485 -20 -22 -64 -71 -98 -110 -59 -65 -256 -313 -334 -420 -71 -97
-283 -417 -303 -458 -12 -23 -27 -49 -34 -57 -7 -8 -28 -44 -47 -80 -19 -36
-53 -96 -75 -135 -76 -132 -240 -466 -281 -570 -11 -28 -34 -79 -51 -114 -17
-36 -31 -71 -31 -78 0 -7 -4 -21 -9 -31 -10 -20 -16 -34 -66 -162 -20 -52 -41
-104 -45 -115 -5 -11 -18 -51 -30 -90 -12 -38 -27 -81 -32 -95 -23 -59 -58
-174 -58 -191 0 -10 -4 -20 -9 -23 -5 -3 -11 -18 -14 -33 -2 -16 -18 -73 -35
-128 -33 -109 -59 -212 -72 -284 -5 -25 -14 -64 -20 -86 -6 -22 -15 -60 -19
-85 -5 -25 -17 -76 -26 -115 -17 -76 -39 -199 -56 -310 -5 -38 -15 -92 -20
-120 -6 -27 -17 -106 -24 -175 -8 -69 -19 -161 -24 -205 -52 -402 -65 -1036
-32 -1500 6 -77 13 -176 16 -220 3 -44 10 -107 15 -140 5 -33 17 -125 25 -204
9 -80 19 -150 23 -155 3 -6 10 -38 13 -71 9 -74 45 -286 58 -340 5 -22 19 -85
31 -140 25 -117 57 -246 101 -405 60 -222 80 -287 154 -495 31 -88 60 -173 65
-190 6 -16 14 -39 19 -50 4 -11 23 -58 41 -105 19 -47 49 -119 68 -160 19 -41
40 -91 47 -110 7 -20 38 -89 69 -155 63 -134 63 -134 133 -266 28 -52 74 -138
103 -193 28 -54 76 -137 107 -185 31 -47 67 -106 81 -131 14 -25 38 -61 53
-81 16 -20 29 -40 29 -44 0 -4 25 -43 55 -87 30 -44 55 -84 55 -89 0 -5 9 -14
20 -21 11 -7 20 -18 20 -24 0 -6 10 -20 22 -32 13 -11 46 -53 73 -92 74 -106
197 -254 397 -479 7 -8 92 -93 188 -189 215 -214 486 -444 660 -561 36 -24 81
-56 100 -71 19 -15 42 -30 50 -33 8 -4 27 -15 41 -25 25 -16 49 -32 94 -60 11
-7 28 -15 38 -18 9 -4 17 -10 17 -14 0 -5 26 -21 58 -37 87 -45 175 -94 193
-109 8 -8 19 -14 22 -14 4 0 58 -24 120 -54 98 -47 206 -95 287 -128 14 -6 39
-16 55 -23 30 -13 164 -58 260 -88 28 -9 64 -20 80 -26 75 -25 241 -67 339
-86 44 -9 83 -18 88 -21 14 -9 202 -35 303 -43 50 -4 95 -10 101 -13 38 -24
596 -26 804 -3 192 21 357 45 400 57 19 6 58 14 85 18 88 15 159 30 180 40 11
4 31 11 45 13 40 7 131 34 186 55 28 11 68 22 89 26 21 4 45 11 54 16 31 18
93 40 111 40 10 0 23 7 30 15 7 8 21 15 31 15 11 0 27 4 37 10 9 5 35 16 57
25 74 31 308 143 365 175 8 5 22 11 30 14 8 4 29 15 45 26 17 11 50 29 75 41
25 12 58 31 75 43 32 23 61 41 85 53 8 4 20 11 25 15 6 5 74 50 152 102 77 51
168 115 202 142 33 27 84 67 112 89 29 22 57 45 63 50 6 6 31 27 56 47 173
141 390 353 570 553 63 71 129 144 145 162 17 18 41 49 55 69 14 20 40 53 59
73 18 20 47 56 64 81 17 25 66 91 109 147 43 56 91 124 108 153 16 28 44 70
61 93 16 23 45 67 64 97 18 30 50 82 71 115 20 33 48 80 62 105 14 25 33 57
43 72 11 14 19 31 19 36 0 5 17 39 38 73 62 103 210 402 252 508 11 30 32 77
45 105 32 69 97 227 125 306 13 36 27 69 32 74 4 6 8 20 8 32 0 13 5 26 10 29
6 3 10 16 10 29 0 12 3 25 6 29 3 3 19 45 35 94 16 48 34 97 39 108 9 19 30
93 50 175 5 19 16 60 25 90 78 262 140 529 186 800 10 65 18 107 40 230 11 63
18 116 39 300 72 620 71 1395 -1 1995 -6 50 -15 126 -19 170 -5 44 -16 121
-25 170 -9 50 -19 115 -24 145 -18 109 -90 456 -101 485 -9 24 -38 141 -51
210 -5 28 -23 93 -39 145 -16 52 -46 149 -66 215 -31 102 -73 223 -104 300 -4
11 -25 67 -45 125 -21 58 -46 123 -55 145 -9 22 -27 65 -39 95 -13 30 -33 78
-46 105 -12 28 -29 66 -37 85 -47 110 -84 188 -100 212 -10 14 -18 30 -18 35
0 4 -11 31 -24 58 -14 28 -27 57 -30 65 -4 8 -16 31 -27 50 -12 19 -40 69 -62
110 -22 41 -48 87 -59 102 -10 14 -18 29 -18 33 0 4 -13 27 -30 52 -16 24 -30
48 -30 53 0 5 -17 35 -38 67 -70 106 -117 178 -122 188 -10 19 -100 150 -156
225 -30 41 -68 95 -85 120 -16 24 -36 48 -44 53 -8 4 -15 13 -15 19 0 6 -9 20
-21 32 -11 12 -67 78 -124 148 -169 205 -444 487 -649 663 -6 6 -38 32 -71 60
-33 27 -62 52 -65 56 -3 3 -59 46 -125 95 -66 49 -124 92 -130 97 -65 49 -105
77 -113 77 -5 0 -17 9 -27 20 -10 11 -27 22 -39 26 -11 4 -37 19 -56 34 -19
15 -48 35 -65 44 -16 9 -43 25 -60 36 -16 10 -50 29 -75 42 -25 13 -59 32 -75
43 -17 11 -89 49 -160 84 -72 35 -151 74 -176 87 -26 13 -52 24 -58 24 -10 0
-109 43 -163 71 -10 5 -26 9 -36 9 -9 0 -27 6 -38 14 -11 8 -37 17 -57 21 -21
4 -40 11 -43 16 -3 5 -17 9 -31 9 -15 0 -34 6 -42 13 -9 8 -52 22 -96 32 -44
10 -84 22 -90 26 -5 5 -20 9 -33 9 -13 0 -32 5 -43 10 -10 6 -38 15 -61 19
-24 5 -86 19 -138 31 -95 22 -169 33 -310 49 -42 5 -100 14 -131 20 -63 13
-595 20 -789 11z m735 -595 c66 -9 145 -21 175 -27 30 -6 82 -14 115 -19 87
-11 177 -29 200 -39 11 -5 42 -12 69 -15 27 -4 58 -10 70 -15 20 -7 58 -19
181 -55 67 -19 68 -20 181 -64 44 -17 85 -31 91 -31 5 0 31 -11 57 -25 26 -14
52 -25 58 -25 10 0 84 -34 198 -90 74 -36 175 -91 184 -101 6 -5 16 -9 23 -9
7 0 32 -13 55 -30 22 -16 45 -30 50 -30 5 0 35 -17 66 -37 31 -21 68 -43 82
-51 13 -7 43 -26 65 -43 22 -16 94 -68 160 -115 295 -213 670 -565 908 -854
71 -85 138 -167 150 -181 12 -14 35 -45 52 -70 16 -24 53 -74 82 -111 29 -37
53 -69 53 -70 0 -2 37 -61 83 -130 45 -69 90 -138 99 -154 10 -16 22 -36 27
-44 33 -50 101 -171 101 -178 0 -5 9 -20 19 -33 19 -24 159 -300 244 -479 66
-140 237 -573 237 -602 0 -9 5 -20 10 -23 6 -3 10 -16 10 -29 0 -12 4 -26 8
-31 5 -6 14 -30 21 -55 7 -25 19 -61 27 -80 7 -19 18 -55 25 -80 6 -25 15 -54
19 -65 5 -11 14 -42 20 -70 7 -27 18 -70 25 -95 30 -107 66 -255 85 -355 6
-33 15 -80 20 -105 50 -236 106 -612 116 -775 2 -33 8 -100 13 -150 15 -136
22 -340 22 -645 -1 -331 -13 -539 -50 -895 -22 -207 -80 -564 -111 -685 -6
-25 -15 -67 -20 -95 -13 -76 -26 -131 -55 -235 -14 -52 -30 -115 -35 -140 -4
-25 -19 -79 -33 -120 -14 -41 -37 -115 -52 -165 -14 -49 -37 -119 -50 -155
-13 -36 -31 -87 -41 -115 -22 -64 -82 -221 -100 -262 -8 -17 -14 -34 -14 -37
0 -3 -13 -35 -30 -71 -16 -36 -30 -68 -30 -70 0 -17 -179 -384 -249 -510 -28
-49 -55 -99 -60 -110 -5 -11 -20 -36 -32 -55 -13 -19 -31 -48 -39 -65 -8 -16
-33 -57 -55 -91 -22 -34 -67 -104 -100 -156 -32 -51 -74 -113 -92 -138 -115
-158 -223 -300 -259 -340 -13 -14 -62 -72 -110 -130 -110 -134 -399 -421 -576
-573 -75 -64 -140 -117 -145 -117 -4 0 -22 -13 -39 -28 -81 -70 -178 -142
-193 -142 -5 0 -11 -3 -13 -7 -4 -9 -102 -78 -162 -113 -23 -14 -107 -62 -186
-108 -80 -46 -152 -87 -160 -92 -23 -13 -158 -74 -210 -94 -8 -3 -22 -10 -30
-15 -8 -5 -33 -17 -55 -26 -22 -10 -52 -24 -67 -32 -14 -7 -35 -13 -46 -13
-12 0 -24 -4 -27 -10 -3 -5 -13 -10 -22 -10 -8 0 -31 -7 -51 -16 -21 -9 -52
-22 -70 -30 -18 -8 -43 -14 -55 -14 -13 0 -32 -7 -43 -15 -10 -8 -31 -15 -45
-15 -14 0 -29 -3 -33 -7 -4 -4 -33 -14 -64 -21 -31 -7 -75 -17 -97 -22 -22 -5
-65 -14 -95 -21 -30 -6 -77 -17 -104 -25 -26 -8 -65 -14 -85 -14 -20 0 -52 -5
-71 -11 -19 -6 -60 -13 -90 -14 -30 -2 -84 -7 -120 -11 -109 -13 -649 -16
-710 -5 -30 6 -91 13 -135 16 -44 2 -96 9 -115 15 -19 5 -53 10 -75 10 -22 1
-51 7 -65 15 -14 8 -40 14 -58 15 -35 0 -144 24 -197 42 -16 6 -47 13 -68 15
-20 3 -40 9 -43 14 -3 5 -17 9 -32 9 -15 1 -38 7 -52 15 -14 8 -37 14 -51 15
-15 0 -32 7 -39 15 -7 8 -25 15 -41 15 -15 0 -30 4 -33 9 -3 5 -18 12 -33 15
-56 13 -374 150 -433 185 -8 5 -35 19 -60 31 -25 11 -54 26 -65 33 -69 43 -96
57 -105 57 -6 0 -29 14 -52 30 -22 17 -47 30 -53 30 -7 0 -18 7 -26 16 -7 9
-27 23 -45 32 -31 17 -147 94 -249 167 -27 19 -61 43 -75 52 -23 16 -153 123
-280 231 -311 265 -731 745 -955 1095 -28 42 -67 103 -87 135 -21 31 -41 64
-44 72 -4 8 -17 29 -29 45 -12 17 -35 55 -51 85 -15 30 -38 71 -50 91 -54 88
-187 350 -282 559 -52 114 -46 99 -177 440 -18 47 -36 96 -40 110 -4 14 -13
39 -19 55 -7 17 -23 64 -35 105 -12 41 -27 89 -32 105 -10 29 -16 46 -38 128
-6 20 -15 52 -20 70 -5 17 -17 61 -25 97 -9 36 -20 79 -25 95 -5 17 -14 55
-21 85 -6 30 -18 80 -25 110 -8 30 -19 84 -25 120 -6 36 -15 83 -20 105 -20
85 -68 394 -80 504 -48 473 -65 780 -57 1067 10 334 27 592 58 849 5 44 11
100 14 125 12 104 79 482 105 590 27 112 53 220 60 255 12 58 37 149 65 240
13 44 39 127 56 185 17 58 35 114 39 125 15 35 92 249 97 270 3 11 11 34 18
50 7 17 30 71 50 120 21 50 48 114 61 143 13 29 24 54 24 57 0 2 29 65 65 140
36 75 65 137 65 139 0 4 146 273 177 326 253 435 534 812 854 1144 136 142
320 313 448 416 51 41 112 91 135 110 24 19 53 42 66 50 13 8 37 27 54 41 17
14 77 54 134 89 56 35 102 67 102 72 0 4 5 8 11 8 10 0 53 25 154 87 11 7 39
21 62 32 24 11 58 31 76 45 19 14 39 26 45 26 6 0 51 20 99 44 49 24 106 52
128 61 22 9 48 20 57 25 10 6 24 10 32 10 7 0 19 7 26 15 7 8 22 15 34 15 12
0 30 6 41 13 11 8 47 22 80 32 33 9 64 21 70 26 5 5 21 9 35 9 14 0 35 7 46
15 10 8 33 15 50 15 16 0 34 4 40 9 5 5 29 13 54 19 25 6 59 15 75 21 17 5 66
17 110 26 44 9 94 20 111 25 17 6 46 10 65 10 19 0 63 6 99 15 138 31 286 42
580 44 215 1 327 -3 415 -14z"/>
<path d="M12035 15895 c-27 -7 -66 -14 -85 -14 -20 -1 -40 -5 -45 -10 -6 -5
-37 -17 -70 -27 -57 -17 -145 -58 -210 -99 -177 -109 -300 -232 -429 -430 -66
-101 -166 -290 -166 -314 0 -6 -9 -30 -19 -53 -56 -124 -100 -305 -135 -565
-28 -198 -13 -698 24 -868 6 -27 20 -93 30 -145 10 -52 28 -126 40 -165 12
-38 26 -86 31 -105 6 -19 14 -44 19 -55 5 -11 19 -54 31 -95 12 -41 28 -82 34
-90 7 -8 16 -26 20 -40 10 -34 125 -269 174 -356 95 -170 349 -504 383 -504 9
0 87 53 160 109 26 20 64 47 84 61 20 14 44 32 53 40 9 8 34 27 56 43 22 15
72 51 111 80 78 57 208 154 294 217 30 22 84 61 120 87 36 25 67 49 70 52 3 4
19 15 35 25 17 11 72 51 124 90 51 39 103 78 115 86 32 22 201 145 368 267
438 323 619 457 629 470 9 10 9 20 0 39 -6 14 -11 46 -11 71 0 25 -4 62 -9 82
-5 20 -15 63 -21 96 -24 121 -82 346 -107 412 -14 38 -33 94 -43 127 -11 32
-33 88 -50 125 -17 36 -39 84 -49 106 -58 129 -181 346 -241 425 -15 19 -55
73 -90 120 -227 308 -579 578 -910 699 -51 19 -254 23 -315 6z m244 -392 c25
-8 69 -25 96 -38 28 -12 57 -25 65 -29 8 -3 29 -15 45 -26 17 -11 37 -23 45
-27 8 -4 42 -25 75 -47 144 -97 326 -271 437 -418 10 -13 31 -40 48 -62 32
-41 127 -191 153 -241 133 -254 231 -508 267 -690 7 -33 16 -73 21 -89 13 -41
11 -66 -4 -66 -7 0 -23 -10 -37 -23 -26 -23 -94 -75 -121 -92 -9 -5 -52 -37
-96 -70 -44 -33 -90 -67 -102 -75 -13 -8 -32 -23 -43 -32 -12 -10 -24 -18 -27
-18 -6 0 -49 -34 -81 -63 -8 -8 -40 -30 -70 -49 -30 -19 -67 -47 -82 -61 -15
-14 -45 -35 -68 -48 -22 -12 -40 -26 -40 -31 0 -5 -11 -13 -25 -18 -14 -5 -25
-14 -25 -20 0 -5 -5 -10 -10 -10 -10 0 -19 -6 -53 -36 -7 -5 -20 -13 -29 -17
-10 -3 -18 -11 -18 -17 0 -5 -7 -10 -15 -10 -9 0 -18 -7 -21 -15 -4 -8 -10
-15 -15 -15 -13 0 -99 -63 -99 -72 0 -4 -6 -8 -14 -8 -7 0 -20 -7 -27 -16 -8
-9 -32 -28 -54 -42 -22 -13 -48 -32 -57 -41 -25 -23 -37 -33 -91 -69 -26 -17
-53 -36 -60 -42 -24 -19 -220 -165 -236 -175 -9 -5 -37 -27 -63 -47 -26 -21
-50 -38 -55 -38 -5 0 -23 -13 -41 -30 -18 -16 -39 -30 -46 -30 -25 0 -236 324
-236 362 0 5 -9 21 -20 36 -23 32 -118 259 -154 369 -25 78 -77 285 -90 356
-8 45 8 56 51 34 63 -33 131 -48 193 -44 33 2 66 9 72 15 7 7 23 12 37 12 82
0 267 158 330 280 44 85 76 194 91 307 40 294 -110 628 -331 740 -87 43 -172
67 -221 60 -55 -7 -58 11 -12 81 128 189 243 298 391 371 26 13 56 27 65 32
37 19 104 39 133 40 17 0 50 6 75 13 63 18 145 17 199 -1z"/>
<path d="M8095 12924 c-5 -2 -48 -8 -95 -13 -95 -10 -170 -27 -184 -42 -6 -5
-18 -9 -27 -9 -21 0 -213 -84 -229 -100 -8 -8 -43 -29 -60 -37 -14 -6 -89 -61
-100 -73 -3 -3 -18 -16 -35 -29 -149 -113 -318 -324 -433 -541 -64 -122 -136
-295 -163 -395 -4 -16 -17 -64 -28 -105 -29 -102 -61 -267 -61 -310 0 -19 -5
-51 -10 -70 -14 -48 -14 -571 0 -668 6 -42 20 -124 31 -182 11 -58 24 -130 30
-160 5 -30 16 -75 23 -100 52 -167 91 -280 107 -314 11 -22 19 -43 19 -48 0
-7 43 -109 59 -138 4 -8 25 -49 46 -90 110 -214 252 -415 406 -573 56 -59 56
-59 85 -44 16 9 57 38 92 66 34 28 65 51 68 51 4 0 21 12 39 28 17 15 42 34
55 42 13 8 38 27 55 43 18 15 37 27 43 27 5 0 16 7 23 16 7 9 36 31 64 48 27
18 69 48 92 67 23 19 57 44 75 57 36 25 276 200 293 214 5 4 48 35 94 69 47
34 89 66 95 70 6 5 38 28 71 52 116 84 556 407 568 417 7 5 185 136 397 291
212 155 391 287 398 293 10 10 11 31 2 102 -28 236 -80 451 -162 669 -50 133
-68 176 -116 270 -25 50 -56 113 -70 140 -33 67 -154 247 -231 345 -130 167
-412 407 -567 485 -41 20 -76 41 -79 46 -4 5 -17 9 -29 9 -13 0 -29 7 -36 15
-7 8 -20 15 -29 15 -9 0 -21 4 -26 9 -6 6 -28 14 -50 20 -22 6 -67 18 -100 27
-90 24 -376 51 -410 38z m251 -404 c108 -15 163 -30 249 -66 62 -26 161 -78
192 -100 17 -13 34 -24 38 -24 10 0 116 -80 165 -124 101 -91 211 -213 282
-312 42 -57 188 -301 188 -313 0 -4 15 -39 34 -77 18 -38 48 -109 65 -159 18
-49 37 -101 42 -115 21 -57 68 -270 63 -284 -6 -15 -179 -146 -193 -146 -5 0
-11 -3 -13 -8 -5 -13 -85 -72 -97 -72 -6 0 -11 -4 -11 -9 0 -5 -17 -20 -37
-32 -21 -13 -47 -31 -57 -41 -11 -10 -23 -18 -28 -18 -4 0 -17 -9 -27 -19 -11
-11 -82 -65 -158 -120 -76 -55 -151 -111 -167 -123 -16 -13 -34 -25 -40 -27
-6 -2 -16 -9 -22 -15 -6 -6 -22 -18 -34 -26 -12 -8 -36 -27 -54 -42 -17 -15
-36 -28 -42 -28 -6 0 -18 -7 -25 -17 -18 -21 -116 -93 -127 -93 -5 0 -22 -13
-38 -30 -16 -16 -33 -30 -37 -30 -4 0 -20 -11 -35 -25 -15 -14 -32 -25 -39
-25 -7 0 -13 -5 -13 -10 0 -6 -10 -14 -22 -19 -13 -5 -51 -32 -86 -60 -34 -28
-66 -51 -71 -51 -4 0 -16 -9 -25 -19 -9 -10 -37 -31 -62 -47 -24 -15 -44 -32
-44 -36 0 -4 -5 -8 -11 -8 -6 0 -26 -12 -44 -27 -17 -16 -42 -35 -54 -43 -12
-8 -30 -21 -39 -27 -9 -7 -46 -34 -81 -60 -36 -27 -91 -66 -122 -88 -32 -22
-68 -49 -81 -60 -13 -11 -37 -29 -53 -39 -17 -11 -34 -25 -40 -32 -5 -7 -21
-15 -35 -19 -22 -5 -32 3 -76 62 -45 61 -66 93 -128 196 -76 127 -145 281
-206 457 -54 158 -117 454 -100 473 3 4 26 -3 51 -16 24 -13 58 -27 74 -30 17
-3 54 -11 84 -17 37 -8 62 -8 80 -1 14 5 45 13 69 16 123 19 290 166 359 315
68 148 76 185 77 355 1 154 -13 251 -44 314 -4 9 -25 52 -46 96 -47 95 -151
208 -234 253 -70 38 -160 64 -205 61 -18 -2 -37 0 -41 4 -20 20 122 215 241
333 97 96 143 129 250 184 44 23 87 45 95 49 22 12 81 32 110 38 14 2 32 7 40
11 64 26 256 32 396 12z"/>
<path d="M14160 12493 c0 -10 -124 -103 -138 -103 -4 0 -20 -14 -36 -30 -16
-17 -34 -30 -40 -30 -6 0 -23 -11 -38 -25 -15 -14 -31 -25 -35 -25 -4 0 -21
-14 -37 -30 -16 -17 -34 -30 -41 -30 -6 0 -24 -13 -40 -30 -16 -16 -33 -30
-37 -30 -5 0 -21 -11 -36 -25 -15 -14 -32 -25 -38 -25 -6 0 -24 -13 -40 -30
-16 -16 -33 -30 -38 -30 -6 0 -30 -17 -55 -38 -25 -21 -54 -41 -63 -45 -10 -3
-18 -11 -18 -17 0 -5 -6 -10 -13 -10 -8 0 -24 -11 -37 -25 -13 -14 -29 -25
-36 -25 -6 0 -18 -7 -25 -17 -17 -20 -115 -93 -126 -93 -4 0 -26 -16 -47 -35
-22 -19 -42 -35 -45 -35 -3 0 -18 -10 -33 -23 -14 -12 -36 -29 -48 -37 -23
-16 -136 -96 -154 -111 -6 -5 -27 -21 -46 -37 -19 -16 -42 -31 -50 -34 -8 -4
-42 -28 -75 -55 -33 -27 -68 -52 -78 -56 -9 -3 -17 -11 -17 -17 0 -5 -4 -10
-10 -10 -10 0 -131 -86 -140 -99 -3 -4 -30 -24 -60 -43 -30 -20 -64 -44 -75
-54 -11 -11 -40 -32 -65 -48 -25 -16 -52 -35 -60 -43 -8 -7 -130 -97 -270
-199 -140 -103 -257 -189 -260 -193 -5 -7 -145 -111 -190 -141 -12 -8 -39 -27
-59 -42 -114 -85 -232 -171 -288 -210 -29 -20 -60 -43 -68 -50 -8 -7 -33 -26
-55 -43 -23 -16 -56 -42 -74 -57 -19 -16 -38 -28 -42 -28 -5 0 -20 -10 -34
-23 -40 -36 -107 -87 -115 -87 -4 0 -26 -15 -49 -32 -22 -18 -45 -36 -51 -41
-5 -4 -49 -35 -96 -70 -211 -152 -286 -207 -314 -232 -17 -14 -66 -50 -110
-80 -44 -30 -91 -64 -105 -74 -14 -11 -74 -57 -135 -101 -60 -44 -191 -140
-291 -213 -99 -72 -193 -142 -210 -155 -16 -12 -270 -199 -564 -414 -294 -215
-584 -428 -645 -473 -60 -45 -118 -84 -127 -88 -29 -11 -25 -59 42 -462 5 -27
16 -79 25 -115 8 -36 23 -96 31 -135 9 -38 24 -92 35 -120 10 -27 19 -56 19
-64 0 -12 57 -168 101 -278 5 -13 13 -33 18 -45 97 -244 277 -549 431 -732
111 -132 398 -406 426 -406 3 0 27 -18 53 -40 26 -22 51 -40 55 -40 5 0 26
-14 47 -31 56 -44 229 -136 389 -206 19 -8 47 -22 62 -29 14 -8 35 -14 46 -14
11 0 33 -6 49 -14 54 -27 120 -48 208 -65 22 -5 53 -13 68 -20 16 -6 39 -11
52 -11 12 0 45 -6 71 -14 83 -24 164 -37 279 -42 61 -3 121 -9 135 -13 57 -19
617 6 659 29 11 5 32 10 48 10 15 1 39 7 53 15 14 8 39 15 55 15 17 0 64 12
105 25 41 14 81 25 90 25 8 0 28 7 44 15 15 8 36 15 46 15 10 0 31 7 46 15 16
8 41 15 55 15 15 0 32 7 39 15 7 8 20 15 29 15 16 0 133 44 161 61 8 5 22 12
30 15 8 3 22 10 30 15 8 5 25 13 37 19 88 38 243 123 338 186 108 71 223 151
240 166 8 7 35 29 61 48 166 124 395 350 576 569 57 69 247 350 277 410 13 24
42 74 66 111 89 138 253 487 287 610 6 19 16 49 23 65 7 17 18 50 25 75 7 25
21 70 31 100 9 30 29 105 43 165 15 61 31 126 36 145 4 19 14 62 20 95 6 33
18 87 25 120 8 33 19 92 25 130 6 39 13 81 16 95 8 37 23 135 33 220 5 41 16
120 24 175 9 55 19 172 24 260 16 324 6 1081 -17 1222 -6 32 -10 85 -10 117 0
33 -4 85 -10 115 -5 31 -14 97 -20 146 -6 50 -15 113 -20 140 -5 28 -16 91
-25 140 -18 106 -37 192 -72 335 -70 288 -97 361 -181 491 -12 20 -20 42 -17
50 4 8 39 36 78 62 110 74 231 164 240 179 6 8 -5 43 -28 93 -21 44 -51 109
-67 145 -16 36 -32 71 -37 79 -9 17 -31 27 -31 14z m-2027 -4825 c77 -3 133
-10 139 -16 7 -7 30 -12 53 -12 22 0 49 -7 59 -15 11 -8 32 -15 47 -15 15 0
40 -7 55 -15 16 -8 37 -15 46 -15 9 0 20 -4 23 -10 3 -5 17 -10 30 -10 13 0
27 -5 30 -11 4 -5 17 -14 28 -20 12 -5 31 -14 42 -21 24 -13 37 -20 93 -49 23
-13 42 -26 42 -30 0 -3 8 -10 18 -13 41 -15 186 -127 220 -171 11 -14 23 -25
27 -25 25 0 275 -298 275 -327 0 -10 -23 -50 -50 -88 -28 -39 -61 -86 -74
-105 -20 -29 -107 -134 -195 -235 -20 -22 -232 -226 -277 -266 -16 -14 -42
-34 -58 -44 -15 -10 -40 -30 -55 -44 -49 -46 -277 -191 -301 -191 -5 0 -10 -4
-12 -8 -1 -4 -34 -24 -73 -43 -38 -20 -79 -41 -90 -47 -31 -17 -127 -59 -154
-67 -14 -4 -45 -18 -69 -31 -25 -13 -57 -24 -71 -24 -14 0 -35 -7 -45 -15 -11
-8 -31 -15 -45 -15 -14 0 -35 -7 -45 -15 -11 -8 -36 -15 -56 -15 -20 0 -41 -5
-47 -11 -5 -5 -37 -13 -69 -16 -32 -3 -67 -12 -76 -21 -13 -11 -29 -13 -63 -7
-34 5 -53 2 -70 -9 -18 -12 -51 -16 -128 -16 -60 0 -107 -4 -114 -11 -8 -8
-16 -7 -31 2 -18 11 -24 10 -41 -5 -17 -16 -23 -17 -36 -6 -13 11 -20 11 -41
0 -21 -12 -27 -11 -41 3 -16 15 -18 15 -35 0 -17 -15 -19 -15 -39 3 -17 15
-23 16 -41 5 -15 -9 -23 -10 -31 -2 -7 7 -60 11 -137 11 -94 1 -130 4 -144 15
-13 10 -43 15 -82 15 -35 0 -66 5 -69 10 -3 6 -19 10 -34 10 -57 0 -91 12 -97
34 -4 18 10 113 47 311 6 28 14 73 19 100 13 76 21 105 31 111 5 3 9 17 9 32
1 15 7 38 15 52 8 14 14 35 15 46 0 29 37 117 148 354 14 30 44 82 66 115 23
33 46 72 53 87 6 14 56 81 110 148 54 67 105 133 113 146 8 13 20 24 26 24 6
0 46 35 89 77 63 62 165 143 180 143 2 0 17 14 33 30 17 17 40 30 51 30 12 0
21 4 21 9 0 5 8 12 18 15 23 9 61 31 75 45 6 6 19 11 29 11 10 0 36 11 58 25
22 14 51 25 64 25 14 0 31 7 40 15 8 8 27 15 43 15 16 0 34 5 40 11 5 5 37 13
69 16 32 3 65 11 73 16 7 6 56 13 110 15 53 2 100 8 105 13 5 5 14 5 20 0 6
-5 69 -11 139 -13z"/>
</g>
</svg>
